<svg width="150" height="40" viewBox="0 0 150 40" fill="none" xmlns="http://www.w3.org/2000/svg">
<path d="M28.9688 26.8125C28.9688 27.9375 28.6992 28.8516 28.1602 29.5547C27.6211 30.2344 26.8594 30.7852 25.875 31.207C25.0547 31.5586 24.0234 31.8398 22.7812 32.0508C21.5391 32.2383 20.25 32.3789 18.9141 32.4727C17.5781 32.543 16.2656 32.5898 14.9766 32.6133C13.6875 32.6367 12.6094 32.6484 11.7422 32.6484C10.2656 32.6484 8.80078 32.625 7.34766 32.5781C5.91797 32.5312 4.46484 32.4609 2.98828 32.3672C3.05859 29.9766 2.98828 27.6094 2.77734 25.2656C4.53516 25.3125 6.28125 25.3594 8.01562 25.4062C9.77344 25.4297 11.5312 25.4648 13.2891 25.5117C13.9688 25.5352 14.6484 25.5586 15.3281 25.582C16.0312 25.6055 16.7344 25.6172 17.4375 25.6172C17.5547 25.6172 17.7305 25.6172 17.9648 25.6172C18.1992 25.6172 18.4453 25.6055 18.7031 25.582C18.9609 25.5586 19.1953 25.5234 19.4062 25.4766C19.6406 25.4297 19.8164 25.3594 19.9336 25.2656C20.0273 25.1719 20.0859 25.043 20.1094 24.8789C20.1328 24.6914 20.1445 24.5273 20.1445 24.3867C20.1445 24.1289 20.1094 23.8242 20.0391 23.4727C19.9688 23.0977 19.8633 22.793 19.7227 22.5586C19.6992 22.5352 19.6172 22.5117 19.4766 22.4883C19.3594 22.4648 19.2188 22.4531 19.0547 22.4531C18.8906 22.4297 18.7383 22.418 18.5977 22.418C18.457 22.3945 18.375 22.3828 18.3516 22.3828C16.8516 22.2656 15.3516 22.1836 13.8516 22.1367C12.375 22.0898 10.8867 22.0078 9.38672 21.8906C8.70703 21.8203 8.00391 21.75 7.27734 21.6797C6.57422 21.6094 5.91797 21.4805 5.30859 21.293C4.72266 21.1289 4.21875 20.7656 3.79688 20.2031C3.39844 19.6172 3.07031 18.9609 2.8125 18.2344C2.57812 17.4844 2.40234 16.7344 2.28516 15.9844C2.19141 15.2344 2.14453 14.6016 2.14453 14.0859C2.14453 13.2422 2.22656 12.4453 2.39062 11.6953C2.55469 10.9219 2.8125 10.207 3.16406 9.55078C3.53906 8.89453 4.00781 8.32031 4.57031 7.82812C5.13281 7.3125 5.82422 6.89063 6.64453 6.5625C8.05078 6.02344 9.55078 5.64844 11.1445 5.4375C12.7617 5.22656 14.3086 5.12109 15.7852 5.12109C17.5195 5.12109 19.2305 5.22656 20.918 5.4375C22.6055 5.64844 24.293 5.91797 25.9805 6.24609C25.957 6.92578 25.9336 7.60547 25.9102 8.28516C25.9102 8.94141 25.9102 9.60937 25.9102 10.2891C25.9102 10.9688 25.9453 11.6602 26.0156 12.3633C26.0859 13.043 26.1562 13.7227 26.2266 14.4023C24 14.4492 21.7734 14.4961 19.5469 14.543C17.3438 14.5664 15.1172 14.625 12.8672 14.7188C12.5859 14.7188 12.1992 14.7305 11.707 14.7539C11.2383 14.7773 10.7812 14.8125 10.3359 14.8594C9.89062 14.8828 9.50391 14.9063 9.17578 14.9297C8.84766 14.9531 8.68359 14.9648 8.68359 14.9648C8.56641 15.2227 8.49609 15.4922 8.47266 15.7734C8.44922 16.0312 8.4375 16.3008 8.4375 16.582C8.4375 16.7227 8.4375 16.8984 8.4375 17.1094C8.46094 17.3203 8.51953 17.4844 8.61328 17.6016C8.63672 17.625 8.83594 17.6602 9.21094 17.707C9.58594 17.7539 9.99609 17.8008 10.4414 17.8477C10.9102 17.8945 11.3438 17.9414 11.7422 17.9883C12.1641 18.0352 12.4219 18.0586 12.5156 18.0586C13.2891 18.1289 14.1914 18.2109 15.2227 18.3047C16.2773 18.3984 17.3438 18.5039 18.4219 18.6211C19.5234 18.7383 20.5781 18.8906 21.5859 19.0781C22.5938 19.2422 23.4727 19.4414 24.2227 19.6758C24.9023 19.9102 25.5234 20.2852 26.0859 20.8008C26.6719 21.293 27.1758 21.8789 27.5977 22.5586C28.0195 23.2148 28.3477 23.918 28.582 24.668C28.8398 25.3945 28.9688 26.1094 28.9688 26.8125ZM56.9256 17.1445C56.9256 19.1133 56.8552 21.0703 56.7146 23.0156C56.574 24.9609 56.4334 26.9062 56.2927 28.8516C53.6677 29.0859 51.0545 29.2852 48.4529 29.4492C45.8513 29.6133 43.2381 29.6953 40.6131 29.6953C40.3787 29.6953 39.9451 29.6953 39.3123 29.6953C38.6795 29.6719 38.0115 29.6484 37.3084 29.625C36.6052 29.5781 35.9373 29.5312 35.3045 29.4844C34.6717 29.4141 34.2498 29.3203 34.0388 29.2031C33.2654 28.7812 32.7263 28.2539 32.4217 27.6211C32.117 26.9648 31.9646 26.2266 31.9646 25.4062C31.9646 25.125 31.9763 24.75 31.9998 24.2812C32.0232 23.8125 32.0701 23.3203 32.1404 22.8047C32.2107 22.2891 32.3045 21.8086 32.4217 21.3633C32.5388 20.918 32.6795 20.5898 32.8435 20.3789C33.0545 20.0977 33.5349 19.8633 34.2849 19.6758C35.0349 19.4648 35.9256 19.3008 36.9568 19.1836C38.0115 19.0664 39.1365 18.9727 40.3318 18.9023C41.5506 18.832 42.7107 18.7852 43.8123 18.7617C44.9138 18.7148 45.8982 18.6914 46.7654 18.6914C47.6326 18.6914 48.2537 18.6914 48.6287 18.6914C48.699 18.1758 48.7342 17.6719 48.7342 17.1797C48.7342 17.1328 48.7342 17.0156 48.7342 16.8281C48.7342 16.6172 48.7224 16.4883 48.699 16.4414C48.6287 16.3008 48.406 16.1836 48.031 16.0898C47.656 15.9961 47.1873 15.9258 46.6248 15.8789C46.0857 15.832 45.4881 15.7969 44.8318 15.7734C44.199 15.7266 43.5779 15.7031 42.9685 15.7031C42.3592 15.7031 41.8201 15.7031 41.3513 15.7031C40.8826 15.7031 40.5427 15.7031 40.3318 15.7031C38.8552 15.7031 37.3787 15.7383 35.9021 15.8086C34.4256 15.8555 32.949 15.9023 31.4724 15.9492C31.5662 15.0586 31.6365 14.1562 31.6834 13.2422C31.7537 12.3281 31.7654 11.4258 31.7185 10.5352C33.4295 10.2305 35.1404 10.0195 36.8513 9.90234C38.5857 9.76172 40.3318 9.69141 42.0896 9.69141C42.7224 9.69141 43.4138 9.70313 44.1638 9.72656C44.9138 9.72656 45.6638 9.75 46.4138 9.79688C47.1638 9.82031 47.9021 9.86719 48.6287 9.9375C49.3787 10.0078 50.0701 10.1016 50.7029 10.2188C51.3592 10.3359 52.0037 10.5469 52.6365 10.8516C53.2927 11.1562 53.9021 11.5313 54.4646 11.9766C55.0271 12.4219 55.5193 12.9375 55.9412 13.5234C56.3631 14.0859 56.6677 14.6953 56.8552 15.3516C56.8787 15.4219 56.8904 15.5391 56.8904 15.7031C56.9138 15.8672 56.9256 16.0547 56.9256 16.2656C56.9256 16.4531 56.9256 16.6289 56.9256 16.793C56.9256 16.957 56.9256 17.0742 56.9256 17.1445ZM49.0857 25.4062V20.9062C48.406 20.8828 47.7263 20.8711 47.0467 20.8711C46.367 20.8477 45.6873 20.8359 45.0076 20.8359C44.867 20.8359 44.4685 20.8477 43.8123 20.8711C43.1795 20.8711 42.4881 20.8945 41.7381 20.9414C41.0115 20.9883 40.3435 21.0469 39.7342 21.1172C39.1248 21.1875 38.7732 21.293 38.6795 21.4336C38.5623 21.6211 38.4802 21.8203 38.4334 22.0312C38.4099 22.2188 38.3982 22.418 38.3982 22.6289C38.3982 22.793 38.4099 23.0156 38.4334 23.2969C38.4568 23.5781 38.492 23.8711 38.5388 24.1758C38.6092 24.4805 38.6795 24.7617 38.7498 25.0195C38.8201 25.2773 38.9138 25.4648 39.031 25.582C39.1248 25.6992 39.2771 25.793 39.4881 25.8633C39.7224 25.9102 39.9685 25.957 40.2263 26.0039C40.4842 26.0273 40.742 26.0508 40.9998 26.0742C41.2576 26.0742 41.4568 26.0742 41.5974 26.0742C42.1599 26.0742 42.7576 26.0508 43.3904 26.0039C44.0467 25.957 44.7029 25.9102 45.3592 25.8633C46.0388 25.793 46.6951 25.7227 47.3279 25.6523C47.9607 25.5586 48.5467 25.4766 49.0857 25.4062ZM66.9878 9.48047C66.9878 9.94922 66.8824 10.3945 66.6714 10.8164C66.4839 11.2148 66.2144 11.5664 65.8628 11.8711C65.5347 12.1758 65.1597 12.4219 64.7378 12.6094C64.316 12.7734 63.8941 12.8555 63.4722 12.8555C63.0035 12.8555 62.5582 12.75 62.1363 12.5391C61.7378 12.3281 61.3863 12.0586 61.0816 11.7305C60.7769 11.4023 60.5425 11.0273 60.3785 10.6055C60.2144 10.1602 60.1324 9.71484 60.1324 9.26953C60.1324 8.82422 60.2144 8.41406 60.3785 8.03906C60.566 7.64062 60.8003 7.30078 61.0816 7.01953C61.3863 6.73828 61.7261 6.51562 62.1011 6.35156C62.4996 6.1875 62.9214 6.10547 63.3667 6.10547C63.8121 6.10547 64.2457 6.19922 64.6675 6.38672C65.1128 6.55078 65.4996 6.79687 65.8277 7.125C66.1792 7.42969 66.4605 7.79297 66.6714 8.21484C66.8824 8.61328 66.9878 9.03516 66.9878 9.48047ZM68.4292 15.457C68.3121 16.6992 68.2183 17.9297 68.148 19.1484C68.0777 20.3672 68.0074 21.5859 67.9371 22.8047C67.8433 24.2344 67.6792 25.6523 67.4449 27.0586C67.2339 28.4648 66.9878 29.8711 66.7066 31.2773L61.3277 31.8398C61.3277 31.0898 61.3277 30.3516 61.3277 29.625C61.3511 28.8984 61.3628 28.1602 61.3628 27.4102C61.3628 25.4883 61.3277 23.5664 61.2574 21.6445C61.1871 19.7227 61.1167 17.8008 61.0464 15.8789C62.2886 15.832 63.5074 15.7617 64.7027 15.668C65.9214 15.5742 67.1636 15.5039 68.4292 15.457ZM87.4564 8.07422C87.4564 8.75391 87.4212 9.42188 87.3509 10.0781C87.304 10.7109 87.2337 11.3672 87.14 12.0469C87.0228 12.0234 86.8353 12.0117 86.5775 12.0117C86.2493 12.0117 85.8743 12.0352 85.4525 12.082C85.054 12.1289 84.6439 12.2109 84.222 12.3281C83.8236 12.4219 83.4368 12.5625 83.0618 12.75C82.6868 12.9141 82.3822 13.125 82.1478 13.3828C81.89 13.6875 81.6322 14.0625 81.3743 14.5078C81.14 14.9531 81.0228 15.3867 81.0228 15.8086C81.0228 15.9961 81.0345 16.1367 81.0579 16.2305L84.9954 16.4062C85.0423 16.7812 85.0892 17.168 85.1361 17.5664C85.1829 17.9648 85.2064 18.3516 85.2064 18.7266C85.2064 19.1016 85.1947 19.4648 85.1712 19.8164C85.1478 20.168 85.1243 20.5195 85.1009 20.8711L81.6908 21.5742C81.8783 23.5898 82.0775 25.5938 82.2884 27.5859C82.4993 29.5547 82.6634 31.5469 82.7806 33.5625C82.4993 33.5625 82.2181 33.5508 81.9368 33.5273C81.6556 33.5273 81.3861 33.5273 81.1283 33.5273C79.9095 33.5273 78.7025 33.5625 77.5072 33.6328C76.3353 33.7266 75.1517 33.7852 73.9564 33.8086L74.2728 22.1719L71.6361 22.3125V21.3633C71.6361 20.543 71.6829 19.7344 71.7767 18.9375C71.8704 18.1406 71.9408 17.332 71.9876 16.5117C72.7376 16.4883 73.2884 16.4648 73.64 16.4414C73.9915 16.3945 74.2259 16.3477 74.3431 16.3008C74.4837 16.2539 74.5306 16.1953 74.4837 16.125C74.5306 15.3281 74.6009 14.5664 74.6947 13.8398C74.765 13.2305 74.8587 12.6094 74.9759 11.9766C75.0931 11.3438 75.2454 10.8516 75.4329 10.5C76.0189 9.375 76.6986 8.51953 77.472 7.93359C78.2689 7.32422 79.1243 6.89063 80.0384 6.63281C80.9759 6.35156 81.9603 6.19922 82.9915 6.17578C84.0462 6.12891 85.1361 6.10547 86.2611 6.10547C86.4486 6.10547 86.6243 6.10547 86.7884 6.10547C86.9759 6.10547 87.1634 6.11719 87.3509 6.14062C87.4212 6.82031 87.4564 7.46484 87.4564 8.07422ZM120.159 33.5977C119.714 33.5742 119.28 33.5391 118.858 33.4922C118.507 33.4453 118.155 33.4102 117.804 33.3867C117.476 33.3633 117.23 33.3516 117.066 33.3516C116.151 33.3516 115.237 33.3633 114.323 33.3867C113.409 33.4336 112.507 33.5039 111.616 33.5977C111.64 32.6133 111.651 31.6523 111.651 30.7148C111.675 29.7539 111.687 28.7812 111.687 27.7969C111.687 26.0391 111.651 24.293 111.581 22.5586C111.534 20.8242 111.487 19.0898 111.441 17.3555L104.058 34.0547C102.98 31.125 101.819 28.2539 100.577 25.4414C99.3585 22.6055 98.0812 19.7812 96.7452 16.9688L97.3077 34.3359C97.0499 34.3359 96.7804 34.3242 96.4991 34.3008C96.2413 34.3008 95.9718 34.3008 95.6905 34.3008C94.7999 34.3008 93.921 34.3359 93.0538 34.4062C92.2101 34.4766 91.3546 34.5469 90.4874 34.6172C90.6046 32.4375 90.7218 30.2695 90.839 28.1133C90.9562 25.957 91.0147 23.7891 91.0147 21.6094C91.0147 19.0547 90.9913 16.5117 90.9444 13.9805C90.921 11.4492 90.8976 8.90625 90.8741 6.35156C92.5616 6.35156 94.2022 6.30469 95.796 6.21094C97.4132 6.11719 99.0655 5.98828 100.753 5.82422C101.316 7.69922 101.89 9.5625 102.476 11.4141C103.085 13.2422 103.73 15.0703 104.409 16.8984C105.136 15.1641 105.956 13.4648 106.87 11.8008C107.808 10.1367 108.757 8.48437 109.718 6.84375C111.312 6.79687 112.882 6.75 114.429 6.70312C115.999 6.65625 117.581 6.62109 119.175 6.59766C119.245 8.70703 119.327 10.793 119.421 12.8555C119.538 14.918 119.644 17.0039 119.737 19.1133C119.808 20.7773 119.866 22.4414 119.913 24.1055C119.983 25.7695 120.042 27.4219 120.089 29.0625L120.159 32.0156V33.5977ZM148.89 19.957C145.819 20.1211 142.761 20.2617 139.714 20.3789C136.667 20.4727 133.608 20.5781 130.538 20.6953C130.515 20.7891 130.503 20.8828 130.503 20.9766C130.503 21.0703 130.503 21.1641 130.503 21.2578C130.503 22.0547 130.679 22.6641 131.03 23.0859C131.405 23.5078 131.862 23.8125 132.401 24C132.94 24.1641 133.538 24.2578 134.194 24.2812C134.85 24.3047 135.46 24.3164 136.022 24.3164C137.593 24.3164 139.163 24.2695 140.733 24.1758C142.304 24.0586 143.886 23.9414 145.479 23.8242L145.761 29.4141C144.214 29.4844 142.667 29.543 141.12 29.5898C139.597 29.6367 138.061 29.6602 136.515 29.6602C136.186 29.6602 135.577 29.6602 134.686 29.6602C133.819 29.6367 132.882 29.6016 131.874 29.5547C130.89 29.4844 129.964 29.4023 129.097 29.3086C128.229 29.2148 127.655 29.0859 127.374 28.9219C126.647 28.5 126.073 27.9609 125.651 27.3047C125.253 26.6484 124.936 25.9336 124.702 25.1602C124.491 24.3867 124.339 23.6016 124.245 22.8047C124.175 21.9844 124.128 21.1992 124.104 20.4492C124.081 20.332 124.069 20.2148 124.069 20.0977C124.093 19.957 124.104 19.8281 124.104 19.7109C124.104 18.4688 124.233 17.3203 124.491 16.2656C124.772 15.1875 125.276 14.1445 126.003 13.1367C126.495 12.4336 127.222 11.8477 128.183 11.3789C129.143 10.9102 130.186 10.5469 131.311 10.2891C132.436 10.0078 133.561 9.82031 134.686 9.72656C135.811 9.60937 136.784 9.55078 137.604 9.55078C138.331 9.55078 139.222 9.62109 140.276 9.76172C141.331 9.87891 142.374 10.0898 143.405 10.3945C144.46 10.6992 145.409 11.0977 146.253 11.5898C147.097 12.0586 147.671 12.6445 147.975 13.3477C148.022 13.4883 148.069 13.7344 148.116 14.0859C148.186 14.4141 148.257 14.8008 148.327 15.2461C148.397 15.668 148.456 16.125 148.503 16.6172C148.573 17.1094 148.632 17.5781 148.679 18.0234C148.725 18.4688 148.761 18.8672 148.784 19.2188C148.831 19.5703 148.866 19.8164 148.89 19.957ZM144.108 17.3906C143.968 16.3594 143.698 15.5508 143.3 14.9648C142.925 14.3555 142.444 13.9102 141.858 13.6289C141.296 13.3242 140.64 13.1367 139.89 13.0664C139.163 12.9727 138.378 12.9258 137.534 12.9258C137.253 12.9258 136.901 12.9375 136.479 12.9609C136.058 12.9609 135.636 12.9961 135.214 13.0664C134.792 13.1133 134.393 13.1953 134.018 13.3125C133.643 13.4297 133.35 13.5938 133.14 13.8047C132.975 13.9453 132.835 14.1445 132.718 14.4023C132.624 14.6367 132.542 14.8945 132.472 15.1758C132.401 15.457 132.343 15.7383 132.296 16.0195C132.272 16.2773 132.261 16.5 132.261 16.6875C132.261 17.0625 132.296 17.4258 132.366 17.7773L144.108 17.3906Z" fill="#6DFF24"/>
</svg>
