<svg width="25" height="25" viewBox="0 0 25 25" fill="none" xmlns="http://www.w3.org/2000/svg">
<mask id="mask0_149_1037" style="mask-type:alpha" maskUnits="userSpaceOnUse" x="0" y="0" width="25" height="25">
<rect x="0.355713" y="0.49707" width="24" height="24" fill="#D9D9D9"/>
</mask>
<g mask="url(#mask0_149_1037)">
<path d="M7.20022 21.9777C6.46189 21.9777 5.83564 21.7207 5.32147 21.2065C4.8073 20.6923 4.55022 20.0661 4.55022 19.3277V6.65273H3.22522V4.00273H9.03072V2.67773H15.6525V4.00273H21.4862V6.65273H20.1612V19.3277C20.1612 20.0661 19.9041 20.6923 19.39 21.2065C18.8758 21.7207 18.2496 21.9777 17.5112 21.9777H7.20022ZM17.5112 6.65273H7.20022V19.3277H17.5112V6.65273ZM9.10147 17.483H11.4265V8.48299H9.10147V17.483ZM13.285 17.483H15.61V8.48299H13.285V17.483Z" fill="#1C1C1C"/>
</g>
</svg>
