<svg width="25" height="25" viewBox="0 0 25 25" fill="none" xmlns="http://www.w3.org/2000/svg">
<mask id="mask0_149_1045" style="mask-type:alpha" maskUnits="userSpaceOnUse" x="0" y="0" width="25" height="25">
<rect x="0.78064" y="0.206055" width="24" height="24" fill="#D9D9D9"/>
</mask>
<g mask="url(#mask0_149_1045)">
<path d="M22.2612 7.00834V19.0366C22.2612 19.7749 22.0041 20.4012 21.4899 20.9153C20.9758 21.4295 20.3495 21.6866 19.6112 21.6866H5.95017C5.21184 21.6866 4.58559 21.4295 4.07142 20.9153C3.55725 20.4012 3.30017 19.7749 3.30017 19.0366V5.37559C3.30017 4.63725 3.55725 4.011 4.07142 3.49684C4.58559 2.98267 5.21184 2.72559 5.95017 2.72559H17.9784L22.2612 7.00834ZM19.6112 8.12684L16.8599 5.37559H5.95017V19.0366H19.6112V8.12684ZM12.7807 18.0366C13.614 18.0366 14.3223 17.7449 14.9057 17.1616C15.489 16.5783 15.7807 15.8699 15.7807 15.0366C15.7807 14.2033 15.489 13.4949 14.9057 12.9116C14.3223 12.3283 13.614 12.0366 12.7807 12.0366C11.9473 12.0366 11.239 12.3283 10.6557 12.9116C10.0723 13.4949 9.78067 14.2033 9.78067 15.0366C9.78067 15.8699 10.0723 16.5783 10.6557 17.1616C11.239 17.7449 11.9473 18.0366 12.7807 18.0366ZM6.95017 10.3756H15.9502V6.37559H6.95017V10.3756Z" fill="#1C1C1C"/>
</g>
</svg>
