<svg width="118" height="24" viewBox="0 0 118 24" fill="none" xmlns="http://www.w3.org/2000/svg">
<path d="M11.8438 14.1094C11.8438 14.4844 11.7865 14.8802 11.6719 15.2969C11.5573 15.7031 11.3906 16.0885 11.1719 16.4531C10.9531 16.8073 10.6823 17.1198 10.3594 17.3906C10.0469 17.651 9.69271 17.8229 9.29688 17.9062C9.14062 17.9375 8.95312 17.9635 8.73438 17.9844C8.52604 18.0052 8.30729 18.0208 8.07812 18.0312C7.84896 18.0417 7.61979 18.0521 7.39062 18.0625C7.17188 18.0729 6.98438 18.0781 6.82812 18.0781C5.93229 18.1198 5.03646 18.1406 4.14062 18.1406C3.24479 18.151 2.34375 18.1562 1.4375 18.1562C1.39583 17.7292 1.35417 17.3073 1.3125 16.8906C1.28125 16.474 1.23438 16.0469 1.17188 15.6094C1.89062 15.5781 2.60417 15.5469 3.3125 15.5156C4.03125 15.474 4.75 15.4271 5.46875 15.375C5.625 15.3646 5.79688 15.3594 5.98438 15.3594C6.18229 15.3594 6.38021 15.3542 6.57812 15.3438C6.78646 15.3333 6.98438 15.3229 7.17188 15.3125C7.36979 15.2917 7.54167 15.2656 7.6875 15.2344C7.75 15.224 7.82292 15.2083 7.90625 15.1875C8 15.1562 8.08333 15.1198 8.15625 15.0781C8.22917 15.026 8.29167 14.9688 8.34375 14.9062C8.39583 14.8438 8.42188 14.7656 8.42188 14.6719C8.42188 14.4531 8.39583 14.2135 8.34375 13.9531C8.30208 13.6823 8.27083 13.4427 8.25 13.2344C7.46875 13.3073 6.68229 13.3802 5.89062 13.4531C5.10938 13.5156 4.32292 13.5469 3.53125 13.5469C2.98958 13.5469 2.55729 13.3958 2.23438 13.0938C1.91146 12.7812 1.67708 12.375 1.53125 11.875C1.5 11.7604 1.46875 11.625 1.4375 11.4688C1.41667 11.3021 1.39583 11.1354 1.375 10.9688C1.36458 10.7917 1.35417 10.6198 1.34375 10.4531C1.33333 10.2865 1.32292 10.1458 1.3125 10.0312C1.26042 9.34375 1.21875 8.66667 1.1875 8C1.16667 7.33333 1.14583 6.65625 1.125 5.96875C1.625 6.02083 2.125 6.06771 2.625 6.10938C3.13542 6.15104 3.64062 6.1875 4.14062 6.21875C4.14062 6.70833 4.15104 7.22917 4.17188 7.78125C4.20312 8.32292 4.27083 8.82812 4.375 9.29688C4.42708 9.54688 4.52604 9.76562 4.67188 9.95312C4.81771 10.1302 4.98958 10.2812 5.1875 10.4062C5.39583 10.5208 5.61458 10.6094 5.84375 10.6719C6.08333 10.724 6.32292 10.75 6.5625 10.75C6.84375 10.75 7.125 10.724 7.40625 10.6719C7.6875 10.6094 7.95833 10.5365 8.21875 10.4531C8.17708 9.67188 8.14062 8.90104 8.10938 8.14062C8.08854 7.38021 8.04167 6.61458 7.96875 5.84375C8.28125 5.83333 8.59375 5.82292 8.90625 5.8125C9.21875 5.79167 9.53125 5.78125 9.84375 5.78125C10.3333 5.78125 10.8281 5.82812 11.3281 5.92188C11.3281 6.36979 11.3333 6.81771 11.3438 7.26562C11.3646 7.71354 11.3854 8.16146 11.4062 8.60938C11.4271 8.81771 11.4427 9.03125 11.4531 9.25C11.474 9.45833 11.4896 9.66667 11.5 9.875C11.5417 10.5833 11.6094 11.2917 11.7031 12C11.7969 12.6979 11.8438 13.401 11.8438 14.1094ZM24.8159 10.9531C24.8159 11.8281 24.7846 12.6979 24.7221 13.5625C24.6596 14.4271 24.5971 15.2917 24.5346 16.1562C23.368 16.2604 22.2065 16.349 21.0503 16.4219C19.894 16.4948 18.7325 16.5312 17.5659 16.5312C17.4617 16.5312 17.269 16.5312 16.9878 16.5312C16.7065 16.5208 16.4096 16.5104 16.0971 16.5C15.7846 16.4792 15.4878 16.4583 15.2065 16.4375C14.9253 16.4062 14.7378 16.3646 14.644 16.3125C14.3003 16.125 14.0607 15.8906 13.9253 15.6094C13.7898 15.3177 13.7221 14.9896 13.7221 14.625C13.7221 14.5 13.7273 14.3333 13.7378 14.125C13.7482 13.9167 13.769 13.6979 13.8003 13.4688C13.8315 13.2396 13.8732 13.026 13.9253 12.8281C13.9773 12.6302 14.0398 12.4844 14.1128 12.3906C14.2065 12.2656 14.42 12.1615 14.7534 12.0781C15.0867 11.9844 15.4825 11.9115 15.9409 11.8594C16.4096 11.8073 16.9096 11.7656 17.4409 11.7344C17.9825 11.7031 18.4982 11.6823 18.9878 11.6719C19.4773 11.651 19.9148 11.6406 20.3003 11.6406C20.6857 11.6406 20.9617 11.6406 21.1284 11.6406C21.1596 11.4115 21.1753 11.1875 21.1753 10.9688C21.1753 10.9479 21.1753 10.8958 21.1753 10.8125C21.1753 10.7188 21.17 10.6615 21.1596 10.6406C21.1284 10.5781 21.0294 10.526 20.8628 10.4844C20.6961 10.4427 20.4878 10.4115 20.2378 10.3906C19.9982 10.3698 19.7325 10.3542 19.4409 10.3438C19.1596 10.3229 18.8836 10.3125 18.6128 10.3125C18.3419 10.3125 18.1023 10.3125 17.894 10.3125C17.6857 10.3125 17.5346 10.3125 17.4409 10.3125C16.7846 10.3125 16.1284 10.3281 15.4721 10.3594C14.8159 10.3802 14.1596 10.401 13.5034 10.4219C13.545 10.026 13.5763 9.625 13.5971 9.21875C13.6284 8.8125 13.6336 8.41146 13.6128 8.01562C14.3732 7.88021 15.1336 7.78646 15.894 7.73438C16.6648 7.67188 17.4409 7.64062 18.2221 7.64062C18.5034 7.64062 18.8107 7.64583 19.144 7.65625C19.4773 7.65625 19.8107 7.66667 20.144 7.6875C20.4773 7.69792 20.8055 7.71875 21.1284 7.75C21.4617 7.78125 21.769 7.82292 22.0503 7.875C22.3419 7.92708 22.6284 8.02083 22.9096 8.15625C23.2013 8.29167 23.4721 8.45833 23.7221 8.65625C23.9721 8.85417 24.1909 9.08333 24.3784 9.34375C24.5659 9.59375 24.7013 9.86458 24.7846 10.1562C24.795 10.1875 24.8003 10.2396 24.8003 10.3125C24.8107 10.3854 24.8159 10.4688 24.8159 10.5625C24.8159 10.6458 24.8159 10.724 24.8159 10.7969C24.8159 10.8698 24.8159 10.9219 24.8159 10.9531ZM21.3315 14.625V12.625C21.0294 12.6146 20.7273 12.6094 20.4253 12.6094C20.1232 12.599 19.8211 12.5938 19.519 12.5938C19.4565 12.5938 19.2794 12.599 18.9878 12.6094C18.7065 12.6094 18.3992 12.6198 18.0659 12.6406C17.743 12.6615 17.4461 12.6875 17.1753 12.7188C16.9044 12.75 16.7482 12.7969 16.7065 12.8594C16.6544 12.9427 16.618 13.0312 16.5971 13.125C16.5867 13.2083 16.5815 13.2969 16.5815 13.3906C16.5815 13.4635 16.5867 13.5625 16.5971 13.6875C16.6075 13.8125 16.6232 13.9427 16.644 14.0781C16.6753 14.2135 16.7065 14.3385 16.7378 14.4531C16.769 14.5677 16.8107 14.651 16.8628 14.7031C16.9044 14.7552 16.9721 14.7969 17.0659 14.8281C17.17 14.849 17.2794 14.8698 17.394 14.8906C17.5086 14.901 17.6232 14.9115 17.7378 14.9219C17.8523 14.9219 17.9409 14.9219 18.0034 14.9219C18.2534 14.9219 18.519 14.9115 18.8003 14.8906C19.0919 14.8698 19.3836 14.849 19.6753 14.8281C19.9773 14.7969 20.269 14.7656 20.5503 14.7344C20.8315 14.6927 21.0919 14.6562 21.3315 14.625ZM29.9599 5.98438C29.8765 6.99479 29.7932 8 29.7099 9C29.637 10 29.5745 11.0052 29.5224 12.0156C29.4703 12.9323 29.413 13.8438 29.3505 14.75C29.2984 15.6458 29.2463 16.5521 29.1943 17.4688L26.8036 17.5938C26.8036 16.6458 26.8036 15.7083 26.8036 14.7812C26.814 13.8438 26.8088 12.901 26.788 11.9531C26.7672 11.0052 26.7255 10.0677 26.663 9.14062C26.6005 8.20312 26.538 7.26042 26.4755 6.3125L29.9599 5.98438ZM34.8695 5.98438C34.7862 6.99479 34.7028 8 34.6195 9C34.5466 10 34.4841 11.0052 34.432 12.0156C34.3799 12.9323 34.3226 13.8438 34.2601 14.75C34.208 15.6458 34.156 16.5521 34.1039 17.4688L31.7132 17.5938C31.7132 16.6458 31.7132 15.7083 31.7132 14.7812C31.7237 13.8438 31.7185 12.901 31.6976 11.9531C31.6768 11.0052 31.6351 10.0677 31.5726 9.14062C31.5101 8.20312 31.4476 7.26042 31.3851 6.3125L34.8695 5.98438ZM47.451 10.9531C47.451 11.8281 47.4198 12.6979 47.3573 13.5625C47.2948 14.4271 47.2323 15.2917 47.1698 16.1562C46.0031 16.2604 44.8416 16.349 43.6854 16.4219C42.5291 16.4948 41.3677 16.5312 40.201 16.5312C40.0968 16.5312 39.9041 16.5312 39.6229 16.5312C39.3416 16.5208 39.0448 16.5104 38.7323 16.5C38.4198 16.4792 38.1229 16.4583 37.8416 16.4375C37.5604 16.4062 37.3729 16.3646 37.2791 16.3125C36.9354 16.125 36.6958 15.8906 36.5604 15.6094C36.425 15.3177 36.3573 14.9896 36.3573 14.625C36.3573 14.5 36.3625 14.3333 36.3729 14.125C36.3833 13.9167 36.4041 13.6979 36.4354 13.4688C36.4666 13.2396 36.5083 13.026 36.5604 12.8281C36.6125 12.6302 36.675 12.4844 36.7479 12.3906C36.8416 12.2656 37.0552 12.1615 37.3885 12.0781C37.7218 11.9844 38.1177 11.9115 38.576 11.8594C39.0448 11.8073 39.5448 11.7656 40.076 11.7344C40.6177 11.7031 41.1333 11.6823 41.6229 11.6719C42.1125 11.651 42.55 11.6406 42.9354 11.6406C43.3208 11.6406 43.5968 11.6406 43.7635 11.6406C43.7948 11.4115 43.8104 11.1875 43.8104 10.9688C43.8104 10.9479 43.8104 10.8958 43.8104 10.8125C43.8104 10.7188 43.8052 10.6615 43.7948 10.6406C43.7635 10.5781 43.6645 10.526 43.4979 10.4844C43.3312 10.4427 43.1229 10.4115 42.8729 10.3906C42.6333 10.3698 42.3677 10.3542 42.076 10.3438C41.7948 10.3229 41.5187 10.3125 41.2479 10.3125C40.977 10.3125 40.7375 10.3125 40.5291 10.3125C40.3208 10.3125 40.1698 10.3125 40.076 10.3125C39.4198 10.3125 38.7635 10.3281 38.1073 10.3594C37.451 10.3802 36.7948 10.401 36.1385 10.4219C36.1802 10.026 36.2114 9.625 36.2323 9.21875C36.2635 8.8125 36.2687 8.41146 36.2479 8.01562C37.0083 7.88021 37.7687 7.78646 38.5291 7.73438C39.3 7.67188 40.076 7.64062 40.8573 7.64062C41.1385 7.64062 41.4458 7.64583 41.7791 7.65625C42.1125 7.65625 42.4458 7.66667 42.7791 7.6875C43.1125 7.69792 43.4406 7.71875 43.7635 7.75C44.0968 7.78125 44.4041 7.82292 44.6854 7.875C44.977 7.92708 45.2635 8.02083 45.5448 8.15625C45.8364 8.29167 46.1073 8.45833 46.3573 8.65625C46.6073 8.85417 46.826 9.08333 47.0135 9.34375C47.201 9.59375 47.3364 9.86458 47.4198 10.1562C47.4302 10.1875 47.4354 10.2396 47.4354 10.3125C47.4458 10.3854 47.451 10.4688 47.451 10.5625C47.451 10.6458 47.451 10.724 47.451 10.7969C47.451 10.8698 47.451 10.9219 47.451 10.9531ZM43.9666 14.625V12.625C43.6645 12.6146 43.3625 12.6094 43.0604 12.6094C42.7583 12.599 42.4562 12.5938 42.1541 12.5938C42.0916 12.5938 41.9145 12.599 41.6229 12.6094C41.3416 12.6094 41.0343 12.6198 40.701 12.6406C40.3781 12.6615 40.0812 12.6875 39.8104 12.7188C39.5395 12.75 39.3833 12.7969 39.3416 12.8594C39.2895 12.9427 39.2531 13.0312 39.2323 13.125C39.2218 13.2083 39.2166 13.2969 39.2166 13.3906C39.2166 13.4635 39.2218 13.5625 39.2323 13.6875C39.2427 13.8125 39.2583 13.9427 39.2791 14.0781C39.3104 14.2135 39.3416 14.3385 39.3729 14.4531C39.4041 14.5677 39.4458 14.651 39.4979 14.7031C39.5395 14.7552 39.6073 14.7969 39.701 14.8281C39.8052 14.849 39.9145 14.8698 40.0291 14.8906C40.1437 14.901 40.2583 14.9115 40.3729 14.9219C40.4875 14.9219 40.576 14.9219 40.6385 14.9219C40.8885 14.9219 41.1541 14.9115 41.4354 14.8906C41.727 14.8698 42.0187 14.849 42.3104 14.8281C42.6125 14.7969 42.9041 14.7656 43.1854 14.7344C43.4666 14.6927 43.727 14.6562 43.9666 14.625ZM65.9109 17.9531L62.8015 18.0312C62.7807 17.3542 62.765 16.6823 62.7546 16.0156C62.7442 15.349 62.7286 14.6771 62.7077 14L59.7702 14.1406C59.7598 14.2448 59.7546 14.349 59.7546 14.4531C59.7546 14.5469 59.7546 14.6406 59.7546 14.7344C59.7546 15.3177 59.7755 15.901 59.8171 16.4844C59.8692 17.0573 59.9213 17.6302 59.9734 18.2031C59.765 18.2135 59.5515 18.2188 59.3327 18.2188C59.1244 18.2292 58.9161 18.2344 58.7077 18.2344C58.3015 18.2344 57.89 18.224 57.4734 18.2031C57.0671 18.1927 56.6609 18.1875 56.2546 18.1875C56.2755 17.2188 56.3015 16.2604 56.3327 15.3125C56.364 14.3646 56.39 13.4062 56.4109 12.4375C56.4317 11.4896 56.4421 10.5521 56.4421 9.625C56.4525 8.69792 56.463 7.76562 56.4734 6.82812H59.0827C59.1661 7.60938 59.2234 8.39062 59.2546 9.17188C59.2859 9.94271 59.3327 10.7188 59.3952 11.5C59.8952 11.4896 60.39 11.4844 60.8796 11.4844C61.3692 11.4844 61.8692 11.4792 62.3796 11.4688L62.5359 6.40625C62.6817 6.39583 62.8223 6.39062 62.9577 6.39062C63.1036 6.39062 63.2494 6.39062 63.3952 6.39062C63.8119 6.39062 64.2182 6.40104 64.614 6.42188C65.0202 6.44271 65.4265 6.48958 65.8327 6.5625C65.8848 8.46875 65.9057 10.3698 65.8952 12.2656C65.8848 14.151 65.89 16.0469 65.9109 17.9531ZM79.133 10.9531C79.133 11.8281 79.1018 12.6979 79.0393 13.5625C78.9768 14.4271 78.9143 15.2917 78.8518 16.1562C77.6851 16.2604 76.5236 16.349 75.3674 16.4219C74.2111 16.4948 73.0497 16.5312 71.883 16.5312C71.7788 16.5312 71.5861 16.5312 71.3049 16.5312C71.0236 16.5208 70.7268 16.5104 70.4143 16.5C70.1018 16.4792 69.8049 16.4583 69.5236 16.4375C69.2424 16.4062 69.0549 16.3646 68.9611 16.3125C68.6174 16.125 68.3778 15.8906 68.2424 15.6094C68.107 15.3177 68.0393 14.9896 68.0393 14.625C68.0393 14.5 68.0445 14.3333 68.0549 14.125C68.0653 13.9167 68.0861 13.6979 68.1174 13.4688C68.1486 13.2396 68.1903 13.026 68.2424 12.8281C68.2945 12.6302 68.357 12.4844 68.4299 12.3906C68.5236 12.2656 68.7372 12.1615 69.0705 12.0781C69.4038 11.9844 69.7997 11.9115 70.258 11.8594C70.7268 11.8073 71.2268 11.7656 71.758 11.7344C72.2997 11.7031 72.8153 11.6823 73.3049 11.6719C73.7945 11.651 74.232 11.6406 74.6174 11.6406C75.0028 11.6406 75.2788 11.6406 75.4455 11.6406C75.4768 11.4115 75.4924 11.1875 75.4924 10.9688C75.4924 10.9479 75.4924 10.8958 75.4924 10.8125C75.4924 10.7188 75.4872 10.6615 75.4768 10.6406C75.4455 10.5781 75.3465 10.526 75.1799 10.4844C75.0132 10.4427 74.8049 10.4115 74.5549 10.3906C74.3153 10.3698 74.0497 10.3542 73.758 10.3438C73.4768 10.3229 73.2007 10.3125 72.9299 10.3125C72.659 10.3125 72.4195 10.3125 72.2111 10.3125C72.0028 10.3125 71.8518 10.3125 71.758 10.3125C71.1018 10.3125 70.4455 10.3281 69.7893 10.3594C69.133 10.3802 68.4768 10.401 67.8205 10.4219C67.8622 10.026 67.8934 9.625 67.9143 9.21875C67.9455 8.8125 67.9507 8.41146 67.9299 8.01562C68.6903 7.88021 69.4507 7.78646 70.2111 7.73438C70.982 7.67188 71.758 7.64062 72.5393 7.64062C72.8205 7.64062 73.1278 7.64583 73.4611 7.65625C73.7945 7.65625 74.1278 7.66667 74.4611 7.6875C74.7945 7.69792 75.1226 7.71875 75.4455 7.75C75.7788 7.78125 76.0861 7.82292 76.3674 7.875C76.659 7.92708 76.9455 8.02083 77.2268 8.15625C77.5184 8.29167 77.7893 8.45833 78.0393 8.65625C78.2893 8.85417 78.508 9.08333 78.6955 9.34375C78.883 9.59375 79.0184 9.86458 79.1018 10.1562C79.1122 10.1875 79.1174 10.2396 79.1174 10.3125C79.1278 10.3854 79.133 10.4688 79.133 10.5625C79.133 10.6458 79.133 10.724 79.133 10.7969C79.133 10.8698 79.133 10.9219 79.133 10.9531ZM75.6486 14.625V12.625C75.3465 12.6146 75.0445 12.6094 74.7424 12.6094C74.4403 12.599 74.1382 12.5938 73.8361 12.5938C73.7736 12.5938 73.5965 12.599 73.3049 12.6094C73.0236 12.6094 72.7163 12.6198 72.383 12.6406C72.0601 12.6615 71.7632 12.6875 71.4924 12.7188C71.2215 12.75 71.0653 12.7969 71.0236 12.8594C70.9715 12.9427 70.9351 13.0312 70.9143 13.125C70.9038 13.2083 70.8986 13.2969 70.8986 13.3906C70.8986 13.4635 70.9038 13.5625 70.9143 13.6875C70.9247 13.8125 70.9403 13.9427 70.9611 14.0781C70.9924 14.2135 71.0236 14.3385 71.0549 14.4531C71.0861 14.5677 71.1278 14.651 71.1799 14.7031C71.2215 14.7552 71.2893 14.7969 71.383 14.8281C71.4872 14.849 71.5965 14.8698 71.7111 14.8906C71.8257 14.901 71.9403 14.9115 72.0549 14.9219C72.1695 14.9219 72.258 14.9219 72.3205 14.9219C72.5705 14.9219 72.8361 14.9115 73.1174 14.8906C73.409 14.8698 73.7007 14.849 73.9924 14.8281C74.2945 14.7969 74.5861 14.7656 74.8674 14.7344C75.1486 14.6927 75.409 14.6562 75.6486 14.625ZM93.0583 14.75C93.0583 15.3125 92.9333 15.8229 92.6833 16.2812C92.4333 16.7396 92.027 17.0573 91.4645 17.2344C91.3812 17.2552 91.2093 17.276 90.9489 17.2969C90.6885 17.3073 90.4072 17.3177 90.1051 17.3281C89.803 17.3281 89.5166 17.3281 89.2458 17.3281C88.9749 17.3281 88.7978 17.3281 88.7145 17.3281C87.9749 17.3281 87.2353 17.3229 86.4958 17.3125C85.7666 17.3021 85.0374 17.2865 84.3083 17.2656L84.2301 17.9375C83.6989 17.9375 83.1624 17.9479 82.6208 17.9688C82.0791 17.9896 81.5374 18.0156 80.9958 18.0469C81.0062 17.2448 81.0114 16.4479 81.0114 15.6562C81.0218 14.8646 81.027 14.0677 81.027 13.2656C81.027 12.1198 81.0062 10.9844 80.9645 9.85938C80.9333 8.72396 80.902 7.58854 80.8708 6.45312L83.527 6.5625C83.5166 6.69792 83.5114 6.83854 83.5114 6.98438C83.5114 7.11979 83.5114 7.26042 83.5114 7.40625C83.5114 8.09375 83.5218 8.78125 83.5426 9.46875C83.5739 10.1458 83.5895 10.8281 83.5895 11.5156C83.7562 11.2135 83.9853 10.9271 84.277 10.6562C84.5687 10.3854 84.876 10.2083 85.1989 10.125C85.4905 10.0521 85.8239 9.98438 86.1989 9.92188C86.5739 9.85938 86.9541 9.80729 87.3395 9.76562C87.7353 9.71354 88.126 9.67708 88.5114 9.65625C88.8968 9.63542 89.2405 9.625 89.5426 9.625C89.7614 9.625 90.001 9.65625 90.2614 9.71875C90.5322 9.77083 90.7978 9.84896 91.0583 9.95312C91.3187 10.0573 91.553 10.1875 91.7614 10.3438C91.9801 10.4896 92.152 10.6615 92.277 10.8594C92.3812 11.0365 92.4801 11.3021 92.5739 11.6562C92.678 12 92.7614 12.3698 92.8239 12.7656C92.8968 13.151 92.9541 13.526 92.9958 13.8906C93.0374 14.2552 93.0583 14.5417 93.0583 14.75ZM89.777 13.7656C89.777 13.6615 89.7614 13.526 89.7301 13.3594C89.7093 13.1927 89.6728 13.026 89.6208 12.8594C89.5791 12.6823 89.527 12.5208 89.4645 12.375C89.402 12.2188 89.3291 12.1042 89.2458 12.0312C89.2041 11.9896 89.1364 11.9635 89.0426 11.9531C88.9489 11.9323 88.8499 11.9167 88.7458 11.9062C88.652 11.8958 88.553 11.8906 88.4489 11.8906C88.3551 11.8906 88.2822 11.8906 88.2301 11.8906C88.1364 11.8906 87.9905 11.8958 87.7926 11.9062C87.5947 11.9167 87.3708 11.9323 87.1208 11.9531C86.8708 11.9635 86.6051 11.9844 86.3239 12.0156C86.053 12.0365 85.7978 12.0625 85.5583 12.0938C85.3187 12.125 85.1103 12.1615 84.9333 12.2031C84.7562 12.2344 84.6364 12.2708 84.5739 12.3125L84.7614 14.9219C85.0322 14.9219 85.376 14.9219 85.7926 14.9219C86.2197 14.9115 86.6572 14.8958 87.1051 14.875C87.5635 14.8438 88.001 14.8021 88.4176 14.75C88.8447 14.6979 89.1833 14.6198 89.4333 14.5156C89.6103 14.4427 89.7093 14.3438 89.7301 14.2188C89.7614 14.0938 89.777 13.9427 89.777 13.7656ZM97.2179 7.54688C97.2179 7.75521 97.171 7.95312 97.0772 8.14062C96.9939 8.31771 96.8741 8.47396 96.7179 8.60938C96.572 8.74479 96.4054 8.85417 96.2179 8.9375C96.0304 9.01042 95.8429 9.04688 95.6554 9.04688C95.447 9.04688 95.2491 9 95.0616 8.90625C94.8845 8.8125 94.7283 8.69271 94.5929 8.54688C94.4575 8.40104 94.3533 8.23438 94.2804 8.04688C94.2075 7.84896 94.171 7.65104 94.171 7.45312C94.171 7.25521 94.2075 7.07292 94.2804 6.90625C94.3637 6.72917 94.4679 6.57812 94.5929 6.45312C94.7283 6.32812 94.8793 6.22917 95.046 6.15625C95.2231 6.08333 95.4106 6.04688 95.6085 6.04688C95.8064 6.04688 95.9991 6.08854 96.1866 6.17188C96.3845 6.24479 96.5564 6.35417 96.7022 6.5C96.8585 6.63542 96.9835 6.79688 97.0772 6.98438C97.171 7.16146 97.2179 7.34896 97.2179 7.54688ZM97.8585 10.2031C97.8064 10.7552 97.7647 11.3021 97.7335 11.8438C97.7022 12.3854 97.671 12.9271 97.6397 13.4688C97.5981 14.1042 97.5252 14.7344 97.421 15.3594C97.3272 15.9844 97.2179 16.6094 97.0929 17.2344L94.7022 17.4844C94.7022 17.151 94.7022 16.8229 94.7022 16.5C94.7127 16.1771 94.7179 15.849 94.7179 15.5156C94.7179 14.6615 94.7022 13.8073 94.671 12.9531C94.6397 12.099 94.6085 11.2448 94.5772 10.3906C95.1293 10.3698 95.671 10.3385 96.2022 10.2969C96.7439 10.2552 97.296 10.224 97.8585 10.2031ZM111.878 14.75C111.878 15.3125 111.753 15.8229 111.503 16.2812C111.253 16.7396 110.846 17.0573 110.284 17.2344C110.2 17.2552 110.029 17.276 109.768 17.2969C109.508 17.3073 109.226 17.3177 108.924 17.3281C108.622 17.3281 108.336 17.3281 108.065 17.3281C107.794 17.3281 107.617 17.3281 107.534 17.3281C106.794 17.3281 106.055 17.3229 105.315 17.3125C104.586 17.3021 103.857 17.2865 103.128 17.2656L103.049 17.9375C102.518 17.9375 101.982 17.9479 101.44 17.9688C100.898 17.9896 100.357 18.0156 99.815 18.0469C99.8254 17.2448 99.8306 16.4479 99.8306 15.6562C99.841 14.8646 99.8463 14.0677 99.8463 13.2656C99.8463 12.1198 99.8254 10.9844 99.7838 9.85938C99.7525 8.72396 99.7213 7.58854 99.69 6.45312L102.346 6.5625C102.336 6.69792 102.331 6.83854 102.331 6.98438C102.331 7.11979 102.331 7.26042 102.331 7.40625C102.331 8.09375 102.341 8.78125 102.362 9.46875C102.393 10.1458 102.409 10.8281 102.409 11.5156C102.575 11.2135 102.805 10.9271 103.096 10.6562C103.388 10.3854 103.695 10.2083 104.018 10.125C104.31 10.0521 104.643 9.98438 105.018 9.92188C105.393 9.85938 105.773 9.80729 106.159 9.76562C106.555 9.71354 106.945 9.67708 107.331 9.65625C107.716 9.63542 108.06 9.625 108.362 9.625C108.581 9.625 108.82 9.65625 109.081 9.71875C109.351 9.77083 109.617 9.84896 109.878 9.95312C110.138 10.0573 110.372 10.1875 110.581 10.3438C110.799 10.4896 110.971 10.6615 111.096 10.8594C111.2 11.0365 111.299 11.3021 111.393 11.6562C111.497 12 111.581 12.3698 111.643 12.7656C111.716 13.151 111.773 13.526 111.815 13.8906C111.857 14.2552 111.878 14.5417 111.878 14.75ZM108.596 13.7656C108.596 13.6615 108.581 13.526 108.549 13.3594C108.529 13.1927 108.492 13.026 108.44 12.8594C108.398 12.6823 108.346 12.5208 108.284 12.375C108.221 12.2188 108.148 12.1042 108.065 12.0312C108.023 11.9896 107.956 11.9635 107.862 11.9531C107.768 11.9323 107.669 11.9167 107.565 11.9062C107.471 11.8958 107.372 11.8906 107.268 11.8906C107.174 11.8906 107.101 11.8906 107.049 11.8906C106.956 11.8906 106.81 11.8958 106.612 11.9062C106.414 11.9167 106.19 11.9323 105.94 11.9531C105.69 11.9635 105.424 11.9844 105.143 12.0156C104.872 12.0365 104.617 12.0625 104.378 12.0938C104.138 12.125 103.93 12.1615 103.753 12.2031C103.575 12.2344 103.456 12.2708 103.393 12.3125L103.581 14.9219C103.851 14.9219 104.195 14.9219 104.612 14.9219C105.039 14.9115 105.476 14.8958 105.924 14.875C106.383 14.8438 106.82 14.8021 107.237 14.75C107.664 14.6979 108.003 14.6198 108.253 14.5156C108.43 14.4427 108.529 14.3438 108.549 14.2188C108.581 14.0938 108.596 13.9427 108.596 13.7656ZM116.037 7.54688C116.037 7.75521 115.99 7.95312 115.896 8.14062C115.813 8.31771 115.693 8.47396 115.537 8.60938C115.391 8.74479 115.225 8.85417 115.037 8.9375C114.85 9.01042 114.662 9.04688 114.475 9.04688C114.266 9.04688 114.068 9 113.881 8.90625C113.704 8.8125 113.548 8.69271 113.412 8.54688C113.277 8.40104 113.173 8.23438 113.1 8.04688C113.027 7.84896 112.99 7.65104 112.99 7.45312C112.99 7.25521 113.027 7.07292 113.1 6.90625C113.183 6.72917 113.287 6.57812 113.412 6.45312C113.548 6.32812 113.699 6.22917 113.865 6.15625C114.042 6.08333 114.23 6.04688 114.428 6.04688C114.626 6.04688 114.818 6.08854 115.006 6.17188C115.204 6.24479 115.376 6.35417 115.521 6.5C115.678 6.63542 115.803 6.79688 115.896 6.98438C115.99 7.16146 116.037 7.34896 116.037 7.54688ZM116.678 10.2031C116.626 10.7552 116.584 11.3021 116.553 11.8438C116.521 12.3854 116.49 12.9271 116.459 13.4688C116.417 14.1042 116.344 14.7344 116.24 15.3594C116.146 15.9844 116.037 16.6094 115.912 17.2344L113.521 17.4844C113.521 17.151 113.521 16.8229 113.521 16.5C113.532 16.1771 113.537 15.849 113.537 15.5156C113.537 14.6615 113.521 13.8073 113.49 12.9531C113.459 12.099 113.428 11.2448 113.396 10.3906C113.949 10.3698 114.49 10.3385 115.021 10.2969C115.563 10.2552 116.115 10.224 116.678 10.2031Z" fill="#FF249A"/>
</svg>
