<svg width="24" height="24" viewBox="0 0 24 24" fill="none" xmlns="http://www.w3.org/2000/svg">
<mask id="mask0_149_1038" style="mask-type:alpha" maskUnits="userSpaceOnUse" x="0" y="0" width="24" height="24">
<rect width="24" height="24" fill="#D9D9D9"/>
</mask>
<g mask="url(#mask0_149_1038)">
<path d="M19.5718 21.5368L13.1728 15.1378C12.6823 15.5001 12.1143 15.7886 11.469 16.0031C10.8237 16.2176 10.1297 16.3248 9.38701 16.3248C7.48551 16.3248 5.87259 15.6626 4.54826 14.3383C3.22409 13.0141 2.56201 11.4013 2.56201 9.4998C2.56201 7.5983 3.22409 5.98547 4.54826 4.66131C5.87259 3.33697 7.48551 2.6748 9.38701 2.6748C11.2885 2.6748 12.9013 3.33697 14.2255 4.66131C15.5498 5.98547 16.212 7.5983 16.212 9.4998C16.212 10.252 16.1048 10.946 15.8903 11.5818C15.6758 12.2176 15.3873 12.7761 15.025 13.2573L21.438 19.6846L19.5718 21.5368ZM9.38701 13.6748C10.5522 13.6748 11.5393 13.2703 12.3483 12.4613C13.1574 11.6521 13.562 10.665 13.562 9.4998C13.562 8.33464 13.1574 7.34747 12.3483 6.5383C11.5393 5.7293 10.5522 5.3248 9.38701 5.3248C8.22185 5.3248 7.23468 5.7293 6.42551 6.5383C5.61651 7.34747 5.21201 8.33464 5.21201 9.4998C5.21201 10.665 5.61651 11.6521 6.42551 12.4613C7.23468 13.2703 8.22185 13.6748 9.38701 13.6748ZM6.88701 10.4998V8.4998H11.887V10.4998H6.88701Z" fill="#1C1C1C"/>
</g>
</svg>
